<?xml version="1.0" encoding="utf-8" standalone="no"?>
<!DOCTYPE svg PUBLIC "-//W3C//DTD SVG 1.1//EN"
  "http://www.w3.org/Graphics/SVG/1.1/DTD/svg11.dtd">
<svg xmlns:xlink="http://www.w3.org/1999/xlink" width="517.78572pt" height="268.08pt" viewBox="0 0 517.78572 268.08" xmlns="http://www.w3.org/2000/svg" version="1.1">
 <metadata>
  <rdf:RDF xmlns:dc="http://purl.org/dc/elements/1.1/" xmlns:cc="http://creativecommons.org/ns#" xmlns:rdf="http://www.w3.org/1999/02/22-rdf-syntax-ns#">
   <cc:Work>
    <dc:type rdf:resource="http://purl.org/dc/dcmitype/StillImage"/>
    <dc:format>image/svg+xml</dc:format>
    <dc:creator>
     <cc:Agent>
      <dc:title>verify-agent-memory</dc:title>
     </cc:Agent>
    </dc:creator>
   </cc:Work>
  </rdf:RDF>
 </metadata>
 <defs>
  <style type="text/css">*{stroke-linejoin: round; stroke-linecap: butt}</style>
 </defs>
 <g id="figure_1">
  <g id="patch_1">
   <path d="M 0 268.08
L 517.78572 268.08
L 517.78572 0
L 0 0
z
" style="fill: #ffffff"/>
  </g>
  <g id="axes_1">
   <g id="patch_2">
    <path d="M 45.9607 70.87368
L 237.75066 70.87368
Q 241.777746 70.87368 241.777746 68.84424
L 241.777746 43.22256
Q 241.777746 41.19312 237.75066 41.19312
L 45.9607 41.19312
Q 41.933615 41.19312 41.933615 43.22256
L 41.933615 68.84424
Q 41.933615 70.87368 45.9607 70.87368
z
" clip-path="url(#p854dfb3e9c)" style="fill: #f3f5f7; stroke: #8a9199; stroke-width: 0.8; stroke-linejoin: miter"/>
   </g>
   <g id="patch_3">
    <path d="M 140.873903 71.338058
Q 108.754769 78.231108 77.619464 84.91302
" clip-path="url(#p854dfb3e9c)" style="fill: none; stroke: #2e8b57; stroke-width: 0.9; stroke-linecap: round"/>
    <path d="M 81.517016 85.917556
L 77.619464 84.91302
L 80.761624 82.3977
z
" clip-path="url(#p854dfb3e9c)" style="fill: #2e8b57; stroke: #2e8b57; stroke-width: 0.9; stroke-linecap: round"/>
   </g>
   <g id="patch_4">
    <path d="M 17.267714 137.59152
L 133.549816 137.59152
Q 137.576901 137.59152 137.576901 135.56208
L 137.576901 88.3776
Q 137.576901 86.34816 133.549816 86.34816
L 17.267714 86.34816
Q 13.240629 86.34816 13.240629 88.3776
L 13.240629 135.56208
Q 13.240629 137.59152 17.267714 137.59152
z
" clip-path="url(#p854dfb3e9c)" style="fill: #ffffff; stroke: #2e8b57; stroke-width: 0.8; stroke-linejoin: miter"/>
   </g>
   <g id="patch_5">
    <path d="M 21.798186 133.02528
L 129.019344 133.02528
Q 131.536273 133.02528 131.536273 131.75688
L 131.536273 120.34128
Q 131.536273 119.07288 129.019344 119.07288
L 21.798186 119.07288
Q 19.281257 119.07288 19.281257 120.34128
L 19.281257 131.75688
Q 19.281257 133.02528 21.798186 133.02528
z
" clip-path="url(#p854dfb3e9c)" style="fill: #eaf5ee; stroke: #2e8b57; stroke-width: 0.6; stroke-linejoin: miter"/>
   </g>
   <g id="patch_6">
    <path d="M 142.830852 71.341526
Q 174.197786 78.230306 204.581913 84.903243
" clip-path="url(#p854dfb3e9c)" style="fill: none; stroke: #b64342; stroke-width: 0.9; stroke-linecap: round"/>
    <path d="M 201.451824 82.372917
L 204.581913 84.903243
L 200.679599 85.889118
z
" clip-path="url(#p854dfb3e9c)" style="fill: #b64342; stroke: #b64342; stroke-width: 0.9; stroke-linecap: round"/>
   </g>
   <g id="patch_7">
    <path d="M 148.148002 137.59152
L 264.430103 137.59152
Q 268.457189 137.59152 268.457189 135.56208
L 268.457189 88.3776
Q 268.457189 86.34816 264.430103 86.34816
L 148.148002 86.34816
Q 144.120916 86.34816 144.120916 88.3776
L 144.120916 135.56208
Q 144.120916 137.59152 148.148002 137.59152
z
" clip-path="url(#p854dfb3e9c)" style="fill: #ffffff; stroke: #b64342; stroke-width: 0.8; stroke-linejoin: miter"/>
   </g>
   <g id="patch_8">
    <path d="M 152.678473 133.02528
L 259.899631 133.02528
Q 262.41656 133.02528 262.41656 131.75688
L 262.41656 120.34128
Q 262.41656 119.07288 259.899631 119.07288
L 152.678473 119.07288
Q 150.161544 119.07288 150.161544 120.34128
L 150.161544 131.75688
Q 150.161544 133.02528 152.678473 133.02528
z
" clip-path="url(#p854dfb3e9c)" style="fill: #fceeee; stroke: #b64342; stroke-width: 0.6; stroke-linejoin: miter"/>
   </g>
   <g id="patch_9">
    <path d="M 314.265289 90.9144
L 404.874719 90.9144
L 404.874719 51.594
L 314.265289 51.594
z
" clip-path="url(#p854dfb3e9c)" style="fill: #eaf5ee; stroke: #2e8b57; stroke-width: 0.7; stroke-linejoin: miter"/>
   </g>
   <g id="patch_10">
    <path d="M 404.874719 90.9144
L 495.484148 90.9144
L 495.484148 51.594
L 404.874719 51.594
z
" clip-path="url(#p854dfb3e9c)" style="fill: #fceeee; stroke: #b64342; stroke-width: 1.1; stroke-linejoin: miter"/>
   </g>
   <g id="patch_11">
    <path d="M 314.265289 130.2348
L 404.874719 130.2348
L 404.874719 90.9144
L 314.265289 90.9144
z
" clip-path="url(#p854dfb3e9c)" style="fill: #f3f5f7; stroke: #8a9199; stroke-width: 0.7; stroke-linejoin: miter"/>
   </g>
   <g id="patch_12">
    <path d="M 404.874719 130.2348
L 495.484148 130.2348
L 495.484148 90.9144
L 404.874719 90.9144
z
" clip-path="url(#p854dfb3e9c)" style="fill: #f7f1f1; stroke: #a87070; stroke-width: 0.7; stroke-linejoin: miter"/>
   </g>
   <g id="patch_13">
    <path d="M 25.825272 214.20288
L 80.190929 214.20288
Q 84.218015 214.20288 84.218015 212.17344
L 84.218015 186.55176
Q 84.218015 184.52232 80.190929 184.52232
L 25.825272 184.52232
Q 21.798186 184.52232 21.798186 186.55176
L 21.798186 212.17344
Q 21.798186 214.20288 25.825272 214.20288
z
" clip-path="url(#p854dfb3e9c)" style="fill: #f3f5f7; stroke: #4f5963; stroke-width: 0.8; stroke-linejoin: miter"/>
   </g>
   <g id="patch_14">
    <path d="M 118.95163 214.20288
L 173.317288 214.20288
Q 177.344373 214.20288 177.344373 212.17344
L 177.344373 186.55176
Q 177.344373 184.52232 173.317288 184.52232
L 118.95163 184.52232
Q 114.924544 184.52232 114.924544 186.55176
L 114.924544 212.17344
Q 114.924544 214.20288 118.95163 214.20288
z
" clip-path="url(#p854dfb3e9c)" style="fill: #edf4fa; stroke: #2f6b9a; stroke-width: 0.8; stroke-linejoin: miter"/>
   </g>
   <g id="patch_15">
    <path d="M 212.077988 214.20288
L 283.055375 214.20288
Q 287.08246 214.20288 287.08246 212.17344
L 287.08246 186.55176
Q 287.08246 184.52232 283.055375 184.52232
L 212.077988 184.52232
Q 208.050902 184.52232 208.050902 186.55176
L 208.050902 212.17344
Q 208.050902 214.20288 212.077988 214.20288
z
" clip-path="url(#p854dfb3e9c)" style="fill: #e4f2ee; stroke: #2e8b57; stroke-width: 1.2; stroke-linejoin: miter"/>
   </g>
   <g id="patch_16">
    <path d="M 320.305918 214.20288
L 374.671576 214.20288
Q 378.698661 214.20288 378.698661 212.17344
L 378.698661 186.55176
Q 378.698661 184.52232 374.671576 184.52232
L 320.305918 184.52232
Q 316.278832 184.52232 316.278832 186.55176
L 316.278832 212.17344
Q 316.278832 214.20288 320.305918 214.20288
z
" clip-path="url(#p854dfb3e9c)" style="fill: #f5f1f8; stroke: #7b5aa6; stroke-width: 0.8; stroke-linejoin: miter"/>
   </g>
   <g id="patch_17">
    <path d="M 413.432276 214.20288
L 467.797934 214.20288
Q 471.82502 214.20288 471.82502 212.17344
L 471.82502 186.55176
Q 471.82502 184.52232 467.797934 184.52232
L 413.432276 184.52232
Q 409.40519 184.52232 409.40519 186.55176
L 409.40519 212.17344
Q 409.40519 214.20288 413.432276 214.20288
z
" clip-path="url(#p854dfb3e9c)" style="fill: #fff2e8; stroke: #b86c31; stroke-width: 0.8; stroke-linejoin: miter"/>
   </g>
   <g id="patch_18">
    <path d="M 84.213898 199.48944
Q 99.068749 199.48944 112.917368 199.48944
" clip-path="url(#p854dfb3e9c)" style="fill: none; stroke: #77818a; stroke-width: 0.9; stroke-linecap: round"/>
    <path d="M 109.317368 197.68944
L 112.917368 199.48944
L 109.317368 201.28944
z
" clip-path="url(#p854dfb3e9c)" style="fill: #77818a; stroke: #77818a; stroke-width: 0.9; stroke-linecap: round"/>
   </g>
   <g id="patch_19">
    <path d="M 175.325792 199.48944
Q 190.935156 199.48944 205.53829 199.48944
" clip-path="url(#p854dfb3e9c)" style="fill: none; stroke: #77818a; stroke-width: 0.9; stroke-linecap: round"/>
    <path d="M 201.93829 197.68944
L 205.53829 199.48944
L 201.93829 201.28944
z
" clip-path="url(#p854dfb3e9c)" style="fill: #77818a; stroke: #77818a; stroke-width: 0.9; stroke-linecap: round"/>
   </g>
   <g id="patch_20">
    <path d="M 285.56751 199.48944
Q 300.171823 199.48944 313.769905 199.48944
" clip-path="url(#p854dfb3e9c)" style="fill: none; stroke: #77818a; stroke-width: 0.9; stroke-linecap: round"/>
    <path d="M 310.169905 197.68944
L 313.769905 199.48944
L 310.169905 201.28944
z
" clip-path="url(#p854dfb3e9c)" style="fill: #77818a; stroke: #77818a; stroke-width: 0.9; stroke-linecap: round"/>
   </g>
   <g id="patch_21">
    <path d="M 376.68008 199.48944
Q 392.289444 199.48944 406.892578 199.48944
" clip-path="url(#p854dfb3e9c)" style="fill: none; stroke: #77818a; stroke-width: 0.9; stroke-linecap: round"/>
    <path d="M 403.292578 197.68944
L 406.892578 199.48944
L 403.292578 201.28944
z
" clip-path="url(#p854dfb3e9c)" style="fill: #77818a; stroke: #77818a; stroke-width: 0.9; stroke-linecap: round"/>
   </g>
   <g id="text_1">
    <text style="font-weight: 700; font-size: 8px; font-family: 'Arial', 'Helvetica', 'DejaVu Sans', sans-serif; text-anchor: start" x="16.260943" y="21.903019" transform="rotate(-0 16.260943 21.903019)">a</text>
   </g>
   <g id="text_2">
    <text style="font-weight: 700; font-size: 7.2px; font-family: 'Arial', 'Helvetica', 'DejaVu Sans', sans-serif; text-anchor: start; fill: #22272d" x="29.348972" y="21.320597" transform="rotate(-0 29.348972 21.320597)">The same relevant memory can switch eligibility</text>
   </g>
   <g id="text_3">
    <text style="font-weight: 700; font-size: 5.4px; font-family: 'Arial', 'Helvetica', 'DejaVu Sans', sans-serif; text-anchor: middle; fill: #4f5963" x="141.85568" y="50.962021" transform="rotate(-0 141.85568 50.962021)">SAME STORED MEMORY</text>
   </g>
   <g id="text_4">
    <text style="font-size: 6px; font-family: 'Arial', 'Helvetica', 'DejaVu Sans', sans-serif; text-anchor: middle; fill: #24292f" x="141.85568" y="63.292294" transform="rotate(-0 141.85568 63.292294)">The Lisbon departure is March 7.</text>
   </g>
   <g id="text_5">
    <text style="font-weight: 700; font-size: 5.2px; font-family: 'Arial', 'Helvetica', 'DejaVu Sans', sans-serif; text-anchor: start; fill: #2e8b57" x="22.301572" y="97.841063" transform="rotate(-0 22.301572 97.841063)">HISTORY QUERY</text>
   </g>
   <g id="text_6">
    <text style="font-size: 5.3px; font-family: 'Arial', 'Helvetica', 'DejaVu Sans', sans-serif; fill: #272c31" transform="translate(22.301572 109.793534)">Which departure date was recorded</text>
    <text style="font-size: 5.3px; font-family: 'Arial', 'Helvetica', 'DejaVu Sans', sans-serif; fill: #272c31" transform="translate(22.301572 115.892261)">before the latest confirmation?</text>
   </g>
   <g id="text_7">
    <text style="font-weight: 700; font-size: 5.4px; font-family: 'Arial', 'Helvetica', 'DejaVu Sans', sans-serif; text-anchor: start; fill: #2e8b57" x="27.335429" y="127.573381" transform="rotate(-0 27.335429 127.573381)">KEEP</text>
   </g>
   <g id="text_8">
    <text style="font-size: 4.55px; font-family: 'Arial', 'Helvetica', 'DejaVu Sans', sans-serif; text-anchor: start; fill: #4f5963" x="51.497943" y="127.353366" transform="rotate(-0 51.497943 127.353366)">relevant + lifecycle-compatible</text>
   </g>
   <g id="text_9">
    <text style="font-weight: 700; font-size: 5.2px; font-family: 'Arial', 'Helvetica', 'DejaVu Sans', sans-serif; text-anchor: start; fill: #b64342" x="153.181859" y="97.841063" transform="rotate(-0 153.181859 97.841063)">CURRENT-STATE QUERY</text>
   </g>
   <g id="text_10">
    <text style="font-size: 5.3px; font-family: 'Arial', 'Helvetica', 'DejaVu Sans', sans-serif; fill: #272c31" transform="translate(153.181859 109.76248)">What Lisbon departure date belongs</text>
    <text style="font-size: 5.3px; font-family: 'Arial', 'Helvetica', 'DejaVu Sans', sans-serif; fill: #272c31" transform="translate(153.181859 115.365573)">in my out-of-office reply?</text>
   </g>
   <g id="text_11">
    <text style="font-weight: 700; font-size: 5.4px; font-family: 'Arial', 'Helvetica', 'DejaVu Sans', sans-serif; text-anchor: start; fill: #b64342" x="158.215716" y="127.573381" transform="rotate(-0 158.215716 127.573381)">DROP</text>
   </g>
   <g id="text_12">
    <text style="font-size: 4.55px; font-family: 'Arial', 'Helvetica', 'DejaVu Sans', sans-serif; text-anchor: start; fill: #4f5963" x="182.378231" y="127.353366" transform="rotate(-0 182.378231 127.353366)">relevant + lifecycle-incompatible</text>
   </g>
   <g id="text_13">
    <text style="font-weight: 700; font-size: 5.8px; font-family: 'Arial', 'Helvetica', 'DejaVu Sans', sans-serif; text-anchor: middle; fill: #4f5963" x="141.85568" y="145.68812" transform="rotate(-0 141.85568 145.68812)">Admissibility belongs to the memory-query pair, not the memory alone.</text>
   </g>
   <g id="text_14">
    <text style="font-weight: 700; font-size: 8px; font-family: 'Arial', 'Helvetica', 'DejaVu Sans', sans-serif; text-anchor: start" x="268.960574" y="21.903019" transform="rotate(-0 268.960574 21.903019)">b</text>
   </g>
   <g id="text_15">
    <text style="font-weight: 700; font-size: 7.2px; font-family: 'Arial', 'Helvetica', 'DejaVu Sans', sans-serif; text-anchor: start; fill: #22272d" x="282.048603" y="21.320597" transform="rotate(-0 282.048603 21.320597)">The dangerous quadrant is relevant but inadmissible</text>
   </g>
   <g id="text_16">
    <text style="font-weight: 700; font-size: 5.8px; font-family: 'Arial', 'Helvetica', 'DejaVu Sans', sans-serif; text-anchor: middle; fill: #2e8b57" x="359.570004" y="72.755177" transform="rotate(-0 359.570004 72.755177)">Useful evidence</text>
   </g>
   <g id="text_17">
    <text style="font-weight: 700; font-size: 5.8px; font-family: 'Arial', 'Helvetica', 'DejaVu Sans', sans-serif; text-anchor: middle; fill: #b64342" x="450.179434" y="72.75512" transform="rotate(-0 450.179434 72.75512)">Dangerous memory</text>
   </g>
   <g id="text_18">
    <text style="font-size: 5.8px; font-family: 'Arial', 'Helvetica', 'DejaVu Sans', sans-serif; text-anchor: middle; fill: #8a9199" x="359.570004" y="112.077162" transform="rotate(-0 359.570004 112.077162)">Ordinary noise</text>
   </g>
   <g id="text_19">
    <text style="font-size: 5.8px; font-family: 'Arial', 'Helvetica', 'DejaVu Sans', sans-serif; text-anchor: middle; fill: #a87070" x="450.179434" y="112.075577" transform="rotate(-0 450.179434 112.075577)">Inadmissible noise</text>
   </g>
   <g id="text_20">
    <text style="font-weight: 700; font-size: 5.2px; font-family: 'Arial', 'Helvetica', 'DejaVu Sans', sans-serif; text-anchor: middle; fill: #2e8b57" x="359.570004" y="46.5204" transform="rotate(-0 359.570004 46.5204)">ADMISSIBLE</text>
   </g>
   <g id="text_21">
    <text style="font-weight: 700; font-size: 5.2px; font-family: 'Arial', 'Helvetica', 'DejaVu Sans', sans-serif; text-anchor: middle; fill: #b64342" x="450.179434" y="46.5204" transform="rotate(-0 450.179434 46.5204)">INADMISSIBLE</text>
   </g>
   <g id="text_22">
    <text style="font-weight: 700; font-size: 5.2px; font-family: 'Arial', 'Helvetica', 'DejaVu Sans', sans-serif; fill: #4f5963" transform="translate(303.103239 85.0732) rotate(-90)">RELEVANT</text>
   </g>
   <g id="text_23">
    <text style="font-weight: 700; font-size: 5.2px; font-family: 'Arial', 'Helvetica', 'DejaVu Sans', sans-serif; fill: #4f5963" transform="translate(303.103239 126.9936) rotate(-90)">IRRELEVANT</text>
   </g>
   <g id="text_24">
    <text style="font-size: 5px; font-family: 'Arial', 'Helvetica', 'DejaVu Sans', sans-serif; text-anchor: middle; fill: #8a9199" x="404.874719" y="141.675896" transform="rotate(-0 404.874719 141.675896)">Unknown labels remain unresolved; they are never silently treated as pass.</text>
   </g>
   <g id="text_25">
    <text style="font-weight: 700; font-size: 8px; font-family: 'Arial', 'Helvetica', 'DejaVu Sans', sans-serif; text-anchor: start" x="16.260943" y="166.500619" transform="rotate(-0 16.260943 166.500619)">c</text>
   </g>
   <g id="text_26">
    <text style="font-weight: 700; font-size: 7.2px; font-family: 'Arial', 'Helvetica', 'DejaVu Sans', sans-serif; text-anchor: start; fill: #22272d" x="29.348972" y="165.918197" transform="rotate(-0 29.348972 165.918197)">Eligibility must be enforced before prompt exposure</text>
   </g>
   <g id="text_27">
    <text style="font-weight: 700; font-size: 5.7px; font-family: 'Arial', 'Helvetica', 'DejaVu Sans', sans-serif; text-anchor: middle; fill: #4f5963" x="53.008101" y="196.905658" transform="rotate(-0 53.008101 196.905658)">STORED</text>
   </g>
   <g id="text_28">
    <text style="font-size: 4.45px; font-family: 'Arial', 'Helvetica', 'DejaVu Sans', sans-serif; text-anchor: middle; fill: #4f5963" x="53.008101" y="206.729328" transform="rotate(-0 53.008101 206.729328)">memory + metadata</text>
   </g>
   <g id="text_29">
    <text style="font-weight: 700; font-size: 5.7px; font-family: 'Arial', 'Helvetica', 'DejaVu Sans', sans-serif; text-anchor: middle; fill: #2f6b9a" x="146.134459" y="196.905658" transform="rotate(-0 146.134459 196.905658)">RETRIEVED</text>
   </g>
   <g id="text_30">
    <text style="font-size: 4.45px; font-family: 'Arial', 'Helvetica', 'DejaVu Sans', sans-serif; text-anchor: middle; fill: #4f5963" x="146.134459" y="206.729371" transform="rotate(-0 146.134459 206.729371)">semantic candidates</text>
   </g>
   <g id="text_31">
    <text style="font-weight: 700; font-size: 5.7px; font-family: 'Arial', 'Helvetica', 'DejaVu Sans', sans-serif; text-anchor: middle; fill: #2e8b57" x="247.566681" y="196.905658" transform="rotate(-0 247.566681 196.905658)">VERIFY</text>
   </g>
   <g id="text_32">
    <text style="font-size: 4.45px; font-family: 'Arial', 'Helvetica', 'DejaVu Sans', sans-serif; text-anchor: middle; fill: #4f5963" x="247.566681" y="206.729328" transform="rotate(-0 247.566681 206.729328)">scope / policy / lifecycle</text>
   </g>
   <g id="text_33">
    <text style="font-weight: 700; font-size: 5.7px; font-family: 'Arial', 'Helvetica', 'DejaVu Sans', sans-serif; text-anchor: middle; fill: #7b5aa6" x="347.488747" y="196.905658" transform="rotate(-0 347.488747 196.905658)">EXPOSED</text>
   </g>
   <g id="text_34">
    <text style="font-size: 4.45px; font-family: 'Arial', 'Helvetica', 'DejaVu Sans', sans-serif; text-anchor: middle; fill: #4f5963" x="347.488747" y="206.729371" transform="rotate(-0 347.488747 206.729371)">assembled prompt</text>
   </g>
   <g id="text_35">
    <text style="font-weight: 700; font-size: 5.7px; font-family: 'Arial', 'Helvetica', 'DejaVu Sans', sans-serif; text-anchor: middle; fill: #b86c31" x="440.615105" y="196.905658" transform="rotate(-0 440.615105 196.905658)">DISCLOSED</text>
   </g>
   <g id="text_36">
    <text style="font-size: 4.45px; font-family: 'Arial', 'Helvetica', 'DejaVu Sans', sans-serif; text-anchor: middle; fill: #4f5963" x="440.615105" y="206.729371" transform="rotate(-0 440.615105 206.729371)">final answer</text>
   </g>
   <g id="patch_22">
    <path d="M 247.818374 180.46395
Q 247.818374 181.364963 247.818374 181.371549
" style="fill: none; stroke: #2e8b57; stroke-width: 0.8; stroke-linecap: round"/>
    <path d="M 248.818374 179.371549
L 247.818374 181.371549
L 246.818374 179.371549
z
" style="fill: #2e8b57; stroke: #2e8b57; stroke-width: 0.8; stroke-linecap: round"/>
   </g>
   <g id="text_37">
    <text style="font-weight: 700; font-size: 5px; font-family: 'Arial', 'Helvetica', 'DejaVu Sans', sans-serif; text-anchor: middle; fill: #2e8b57" x="247.818374" y="175.415336" transform="rotate(-0 247.818374 175.415336)">enforcement boundary</text>
   </g>
   <g id="text_38">
    <text style="font-size: 4.7px; font-family: 'Arial', 'Helvetica', 'DejaVu Sans', sans-serif; text-anchor: middle; fill: #4f5963" x="71.633372" y="226.88688" transform="rotate(-0 71.633372 226.88688)">support + metadata</text>
   </g>
   <g id="text_39">
    <text style="font-weight: 700; font-size: 5.2px; font-family: 'Arial', 'Helvetica', 'DejaVu Sans', sans-serif; text-anchor: middle; fill: #2f6b9a" x="71.633372" y="237.03408" transform="rotate(-0 71.633372 237.03408)">Figure 2</text>
   </g>
   <g id="text_40">
    <text style="font-size: 4.7px; font-family: 'Arial', 'Helvetica', 'DejaVu Sans', sans-serif; text-anchor: middle; fill: #4f5963" x="247.818374" y="226.88688" transform="rotate(-0 247.818374 226.88688)">selective verifier</text>
   </g>
   <g id="text_41">
    <text style="font-weight: 700; font-size: 5.2px; font-family: 'Arial', 'Helvetica', 'DejaVu Sans', sans-serif; text-anchor: middle; fill: #2f6b9a" x="247.818374" y="237.03408" transform="rotate(-0 247.818374 237.03408)">Figure 3</text>
   </g>
   <g id="text_42">
    <text style="font-size: 4.7px; font-family: 'Arial', 'Helvetica', 'DejaVu Sans', sans-serif; text-anchor: middle; fill: #4f5963" x="404.874719" y="226.88688" transform="rotate(-0 404.874719 226.88688)">reader consequence</text>
   </g>
   <g id="text_43">
    <text style="font-weight: 700; font-size: 5.2px; font-family: 'Arial', 'Helvetica', 'DejaVu Sans', sans-serif; text-anchor: middle; fill: #2f6b9a" x="404.874719" y="237.03408" transform="rotate(-0 404.874719 237.03408)">Figure 4</text>
   </g>
   <g id="text_44">
    <text style="font-size: 4.4px; font-family: 'Arial', 'Helvetica', 'DejaVu Sans', sans-serif; text-anchor: end; fill: #8a9199" x="503.034934" y="253.612023" transform="rotate(-0 503.034934 253.612023)">Example-derived counterfactual from an audited MemOps record</text>
   </g>
  </g>
 </g>
 <defs>
  <clipPath id="p854dfb3e9c">
   <rect x="7.2" y="7.2" width="503.38572" height="253.68"/>
  </clipPath>
 </defs>
</svg>
